HIERARCHY
ROOT root
{
	OFFSET 0.000000 0.000000 0.000000
	CHANNELS 6 Xposition Yposition Zposition Zrotation Yrotation Xrotation
	JOINT lhip
	{
		OFFSET 0.058581 -0.082280 -0.017664
		CHANNELS 3 Zrotation Yrotation Xrotation
		JOINT lknee
		{
			OFFSET 0.043451 -0.386469 0.008037
			CHANNELS 3 Zrotation Yrotation Xrotation
			JOINT lankle
			{
				OFFSET -0.014790 -0.426874 -0.037428
				CHANNELS 3 Zrotation Yrotation Xrotation
				JOINT ltoe
				{
					OFFSET 0.041054 -0.060286 0.122042
					CHANNELS 3 Zrotation Yrotation Xrotation
					End Site
					{
						OFFSET 0.000000 0.000000 0.000000
					}
				}
			}
		}
	}
	JOINT rhip
	{
		OFFSET -0.060310 -0.090513 -0.013543
		CHANNELS 3 Zrotation Yrotation Xrotation
		JOINT rknee
		{
			OFFSET -0.043257 -0.383688 -0.004843
			CHANNELS 3 Zrotation Yrotation Xrotation
			JOINT rankle
			{
				OFFSET 0.019056 -0.420046 -0.034562
				CHANNELS 3 Zrotation Yrotation Xrotation
				JOINT rtoe
				{
					OFFSET -0.034840 -0.062106 0.130323
					CHANNELS 3 Zrotation Yrotation Xrotation
					End Site
					{
						OFFSET 0.000000 0.000000 0.000000
					}
				}
			}
		}
	}
	JOINT lowerback
	{
		OFFSET 0.004439 0.124404 -0.038385
		CHANNELS 3 Zrotation Yrotation Xrotation
		JOINT upperback
		{
			OFFSET 0.004488 0.137956 0.026820
			CHANNELS 3 Zrotation Yrotation Xrotation
			JOINT chest
			{
				OFFSET -0.002265 0.056032 0.002855
				CHANNELS 3 Zrotation Yrotation Xrotation
				JOINT lowerneck
				{
					OFFSET -0.013390 0.211636 -0.033468
					CHANNELS 3 Zrotation Yrotation Xrotation
					JOINT upperneck
					{
						OFFSET 0.010113 0.088937 0.050410
						CHANNELS 3 Zrotation Yrotation Xrotation
						End Site
						{
							OFFSET 0.000000 0.000000 0.000000
						}
					}
				}
				JOINT lclavicle
				{
					OFFSET 0.071702 0.114000 -0.018898
					CHANNELS 3 Zrotation Yrotation Xrotation
					JOINT lshoulder
					{
						OFFSET 0.122921 0.045205 -0.019046
						CHANNELS 3 Zrotation Yrotation Xrotation
						JOINT lelbow
						{
							OFFSET 0.255332 -0.015649 -0.022946
							CHANNELS 3 Zrotation Yrotation Xrotation
							JOINT lwrist
							{
								OFFSET 0.265709 0.012698 -0.007375
								CHANNELS 3 Zrotation Yrotation Xrotation
								End Site
								{
									OFFSET 0.000000 0.000000 0.000000
								}
							}
						}
					}
				}
				JOINT rclavicle
				{
					OFFSET -0.082954 0.112472 -0.023707
					CHANNELS 3 Zrotation Yrotation Xrotation
					JOINT rshoulder
					{
						OFFSET -0.113228 0.046853 -0.008472
						CHANNELS 3 Zrotation Yrotation Xrotation
						JOINT relbow
						{
							OFFSET -0.260127 -0.014369 -0.031269
							CHANNELS 3 Zrotation Yrotation Xrotation
							JOINT rwrist
							{
								OFFSET -0.269108 0.006794 -0.006027
								CHANNELS 3 Zrotation Yrotation Xrotation
								End Site
								{
									OFFSET 0.000000 0.000000 0.000000
								}
							}
						}
					}
				}
			}
		}
	}
}
MOTION
Frames: 11
Frame Time: 0.033333
2.806881 0.185475 0.982832 -81.365174 4.896337 86.658594 3.074479 -1.377243 8.893256 -3.013535 -20.428769 0.725651 -4.036463 4.895055 -11.343793 0.000000 -0.000000 0.000000 -1.231754 -1.575474 -14.137776 2.172013 -4.046313 7.064327 6.702245 -7.296645 5.935953 0.000000 -0.000000 0.000000 -1.985566 -0.700919 5.871377 1.366112 -2.851083 5.971918 1.566957 -3.223360 1.340674 1.715895 -3.960060 -2.274557 7.253024 -2.759995 -12.528758 -23.317440 -0.307942 6.708847 -58.938194 -10.215235 8.140778 16.612331 -30.061816 -6.617375 -4.338700 0.382817 -21.601487 21.541799 -1.011135 3.142436 63.881727 -3.048908 11.369570 -19.727006 28.333867 -2.123106 10.365320 4.045512 -8.288699 
2.807072 0.185030 0.982211 -81.383930 4.572180 86.998083 2.590161 -0.509676 7.856999 -6.334355 -15.893005 3.917982 5.305553 9.569930 -16.295861 0.000000 -0.000000 0.000000 -1.642254 -1.780495 -14.653037 2.353293 -3.854669 7.305844 6.534503 -7.299916 5.809404 0.000000 -0.000000 0.000000 -2.229049 -0.740275 5.528875 1.329075 -2.851644 5.541205 1.526059 -3.211320 1.732943 1.666669 -4.611029 -2.181811 7.221212 -1.786969 -12.675642 -23.190212 -0.545664 6.776257 -58.827161 -10.317630 7.759895 16.447058 -30.712395 -6.580518 -4.014510 1.231988 -22.362181 21.198822 -0.940792 3.306543 64.273938 -2.973836 11.364478 -19.777993 28.282715 -2.547276 10.244082 3.840649 -7.842191 
2.807094 0.185139 0.982090 -81.407076 4.534318 87.061225 2.540106 -0.462089 7.807216 -6.313397 -15.777354 3.895626 5.354212 9.492597 -16.285328 0.000000 -0.000000 0.000000 -1.651862 -1.759562 -14.702456 2.320490 -3.777768 7.261044 6.648067 -7.237033 5.913594 0.000000 -0.000000 0.000000 -2.183292 -0.764665 5.404120 1.307536 -2.882446 5.520892 1.473549 -3.215719 1.796783 1.711260 -4.309219 -2.321021 7.248877 -1.639612 -12.719210 -23.122466 -0.594091 6.679385 -58.735865 -10.542785 7.807112 16.312799 -30.857280 -6.486441 -4.235129 0.966306 -22.673706 21.228004 -1.012601 3.265227 64.265451 -2.960732 11.464496 -19.879519 28.454887 -2.609969 10.244606 3.898114 -7.905976 
2.807400 0.186022 0.981801 -81.688386 4.603929 87.047652 2.600680 -0.468484 7.835695 -6.102002 -15.493262 3.689294 5.315881 9.402416 -16.488242 0.000000 -0.000000 0.000000 -1.444210 -1.386824 -14.831693 2.188775 -3.604216 7.419239 6.100009 -7.239420 5.298169 0.000000 -0.000000 0.000000 -2.088671 -0.787986 5.348338 1.349102 -2.863663 5.387512 1.435758 -3.178465 1.918256 1.706822 -3.531536 -2.723895 7.115175 -1.459756 -12.548809 -22.989109 -0.963640 6.759322 -58.740494 -10.370640 8.207583 16.158114 -31.517371 -5.441217 -3.678418 0.469364 -21.890966 21.236385 -0.874449 3.326324 64.313518 -2.776390 11.536712 -20.041736 28.827254 -2.525676 9.761493 4.118780 -8.231597 
2.807570 0.186142 0.981705 -81.702940 4.570485 86.999673 2.557799 -0.439745 7.892959 -6.047480 -15.489893 3.645589 5.356754 9.317755 -16.550675 0.000000 -0.000000 0.000000 -1.475494 -1.273683 -14.779162 2.158123 -3.581139 7.402293 5.879332 -7.235473 5.073896 0.000000 -0.000000 0.000000 -2.108417 -0.794766 5.387789 1.368973 -2.884801 5.360679 1.428386 -3.182202 1.940321 1.716988 -3.339463 -2.783765 7.069832 -1.418248 -12.517901 -22.955237 -1.085651 6.774949 -58.754422 -10.260559 8.407693 16.029094 -31.755072 -4.840284 -3.293570 0.277424 -21.316342 21.246305 -0.850191 3.269779 64.307430 -2.684632 11.529819 -19.996582 28.954595 -2.482717 9.499765 4.172256 -8.243717 
2.807931 0.186141 0.981301 -81.595683 4.474611 87.037525 2.312072 -0.556651 7.757798 -5.878690 -15.521837 3.808702 5.428430 9.387827 -16.629750 0.000000 -0.000000 0.000000 -1.592535 -1.640518 -14.817884 2.219342 -3.701964 7.265084 6.262596 -6.948507 5.125727 0.000000 -0.000000 0.000000 -2.136913 -0.658665 5.271629 1.382512 -3.029706 5.386197 1.504485 -3.270343 1.948673 1.695501 -3.382452 -2.669145 7.031586 -1.394926 -12.550075 -22.935733 -1.293009 6.763151 -58.924079 -10.414000 8.574461 16.123401 -31.687821 -4.911181 -3.116903 0.327270 -21.484019 21.222123 -0.834602 3.216117 64.290224 -2.458902 11.500345 -20.068353 29.328299 -2.734298 9.348184 4.314990 -8.180095 
2.808300 0.186421 0.980876 -81.614916 4.427390 87.061247 2.217487 -0.852866 7.922260 -5.713953 -15.360688 3.361411 5.572943 9.293022 -16.721086 0.000000 -0.000000 0.000000 -1.639137 -1.625948 -14.862278 2.214754 -3.696135 7.243932 6.223650 -6.937951 4.927276 0.000000 -0.000000 0.000000 -2.171507 -0.587951 4.929664 1.430601 -3.046476 5.604821 1.577307 -3.290305 2.080740 1.712529 -3.408517 -2.572092 6.948166 -1.494727 -12.498478 -22.753576 -1.425881 6.653689 -59.417497 -11.050159 8.598947 16.513114 -30.850504 -5.891511 -3.781120 0.444418 -22.870607 21.132917 -0.807861 3.133323 64.402105 -2.053501 11.627579 -20.450173 29.345963 -3.157659 9.389735 4.591146 -8.259839 
2.808891 0.186996 0.980733 -81.680084 4.425259 86.927582 2.225105 -0.939461 8.069812 -5.682757 -15.128123 3.329071 5.557571 9.332187 -16.771238 0.000000 -0.000000 0.000000 -1.537462 -1.566146 -14.807611 2.071852 -3.528799 7.385505 6.002394 -7.088985 4.480171 0.000000 -0.000000 0.000000 -2.211393 -0.546435 4.929892 1.515504 -3.023164 5.786493 1.642226 -3.275989 2.079227 1.784591 -3.429627 -2.558030 6.840601 -1.509788 -12.383093 -22.639413 -1.382199 6.582596 -59.712330 -11.359016 8.558626 16.590276 -30.786169 -6.345280 -4.234200 0.602217 -24.099543 21.050839 -0.781405 3.046284 64.547449 -1.715537 11.691801 -20.959637 29.619437 -3.884222 9.453218 4.617712 -8.778767 
2.809452 0.187291 0.980760 -81.575369 4.343979 86.884210 2.159179 -0.734720 8.042696 -5.768284 -15.158468 3.638472 5.468908 9.281838 -16.818661 0.000000 -0.000000 0.000000 -1.616401 -1.713284 -14.817938 2.049149 -3.680716 7.426927 6.424641 -7.034489 4.692258 0.000000 -0.000000 0.000000 -2.278944 -0.564001 5.018384 1.560475 -3.104948 5.796854 1.681950 -3.277693 1.918871 1.779889 -3.381532 -2.275549 6.846320 -1.386980 -12.435497 -22.630642 -1.438975 6.693556 -59.859834 -11.208436 8.691912 16.370119 -30.997135 -5.880625 -3.746782 0.367344 -23.794801 21.025546 -0.741054 3.095568 64.534975 -1.585732 11.706731 -21.026053 30.123666 -3.880357 8.947163 4.754611 -8.588060 
2.810327 0.187465 0.980574 -81.358646 4.286508 86.873772 2.128653 -0.553062 7.886300 -5.807068 -15.297039 3.861317 5.339183 9.114792 -16.792269 0.000000 -0.000000 0.000000 -1.715603 -1.705631 -14.751283 1.989579 -3.694509 7.307892 6.165256 -6.915741 4.400179 0.000000 -0.000000 0.000000 -2.245877 -0.648839 5.175770 1.564117 -3.204184 5.775492 1.699639 -3.332004 1.784056 1.863291 -3.494734 -2.126518 6.845599 -1.404612 -12.490393 -22.773010 -1.596542 6.893005 -59.957830 -10.932465 8.882684 16.265634 -31.217453 -5.032174 -3.303223 -0.019264 -22.904297 21.122815 -0.629736 3.184839 64.340378 -1.457296 11.620902 -20.978140 30.773438 -3.771956 8.632445 5.408556 -8.719456 
2.811252 0.187700 0.980591 -81.342635 4.207989 86.890261 2.032193 -0.481942 7.744673 -5.780237 -15.277634 3.967957 5.320363 9.061284 -16.796722 0.000000 -0.000000 0.000000 -1.769549 -1.770287 -14.886464 1.951342 -3.698081 7.428817 6.195264 -6.923617 4.390644 0.000000 -0.000000 0.000000 -2.256840 -0.638856 5.250780 1.559169 -3.193024 5.701550 1.738957 -3.318027 1.804474 1.877622 -3.341424 -2.466788 6.871580 -1.254487 -12.542646 -22.891160 -1.655588 6.884584 -60.113065 -10.798367 8.917965 16.250234 -31.133471 -5.049781 -2.996652 -0.027005 -22.855909 21.214492 -0.574660 3.150126 64.187546 -1.300266 11.630225 -21.029430 31.080724 -3.923226 8.584109 5.283449 -8.541021 
